<svg width="82" height="115" viewBox="0 0 82 115" fill="none" xmlns="http://www.w3.org/2000/svg">
<g opacity="0.3">
<mask id="mask0-670778" mask-type="alpha" maskUnits="userSpaceOnUse" x="10" y="0" width="12" height="11">
<path d="M15.7905 10.425C18.6781 10.425 21.0189 8.09121 21.0189 5.21245C21.0189 2.33368 18.6781 0 15.7905 0C12.903 0 10.5621 2.33368 10.5621 5.21245C10.5621 8.09121 12.903 10.425 15.7905 10.425Z" fill="url(#paint0_linear-761921)"/>
</mask>
<g mask="url(#mask0-670778)">
<path d="M15.7905 10.425C18.6781 10.425 21.0189 8.09121 21.0189 5.21245C21.0189 2.33368 18.6781 0 15.7905 0C12.903 0 10.5621 2.33368 10.5621 5.21245C10.5621 8.09121 12.903 10.425 15.7905 10.425Z" fill="url(#paint1_linear-674766)"/>
</g>
<mask id="mask1-871577" mask-type="alpha" maskUnits="userSpaceOnUse" x="40" y="0" width="12" height="11">
<path d="M46.0716 10.425C48.9592 10.425 51.3 8.09121 51.3 5.21245C51.3 2.33368 48.9592 0 46.0716 0C43.184 0 40.8432 2.33368 40.8432 5.21245C40.8432 8.09121 43.184 10.425 46.0716 10.425Z" fill="url(#paint2_linear-891729)"/>
</mask>
<g mask="url(#mask1-871577)">
<path d="M46.0716 10.425C48.9592 10.425 51.3 8.09121 51.3 5.21245C51.3 2.33368 48.9592 0 46.0716 0C43.184 0 40.8432 2.33368 40.8432 5.21245C40.8432 8.09121 43.184 10.425 46.0716 10.425Z" fill="url(#paint3_linear-009853)"/>
</g>
<mask id="mask2-474326" mask-type="alpha" maskUnits="userSpaceOnUse" x="71" y="0" width="11" height="11">
<path d="M76.3526 10.425C79.2402 10.425 81.581 8.09121 81.581 5.21245C81.581 2.33368 79.2402 0 76.3526 0C73.4651 0 71.1243 2.33368 71.1243 5.21245C71.1243 8.09121 73.4651 10.425 76.3526 10.425Z" fill="url(#paint4_linear-636126)"/>
</mask>
<g mask="url(#mask2-474326)">
<path d="M76.3526 10.425C79.2402 10.425 81.581 8.09121 81.581 5.21245C81.581 2.33368 79.2402 0 76.3526 0C73.4651 0 71.1243 2.33368 71.1243 5.21245C71.1243 8.09121 73.4651 10.425 76.3526 10.425Z" fill="url(#paint5_linear-335337)"/>
</g>
<mask id="mask3-996946" mask-type="alpha" maskUnits="userSpaceOnUse" x="10" y="26" width="12" height="11">
<path d="M15.7905 36.5958C18.6781 36.5958 21.0189 34.2621 21.0189 31.3834C21.0189 28.5046 18.6781 26.171 15.7905 26.171C12.903 26.171 10.5621 28.5046 10.5621 31.3834C10.5621 34.2621 12.903 36.5958 15.7905 36.5958Z" fill="url(#paint6_linear-528448)"/>
</mask>
<g mask="url(#mask3-996946)">
<path d="M15.7905 36.5958C18.6781 36.5958 21.0189 34.2621 21.0189 31.3834C21.0189 28.5046 18.6781 26.171 15.7905 26.171C12.903 26.171 10.5621 28.5046 10.5621 31.3834C10.5621 34.2621 12.903 36.5958 15.7905 36.5958Z" fill="url(#paint7_linear-991501)"/>
</g>
<mask id="mask4-841365" mask-type="alpha" maskUnits="userSpaceOnUse" x="40" y="26" width="12" height="11">
<path d="M46.0716 36.5958C48.9592 36.5958 51.3 34.2621 51.3 31.3834C51.3 28.5046 48.9592 26.171 46.0716 26.171C43.184 26.171 40.8432 28.5046 40.8432 31.3834C40.8432 34.2621 43.184 36.5958 46.0716 36.5958Z" fill="url(#paint8_linear-344547)"/>
</mask>
<g mask="url(#mask4-841365)">
<path d="M46.0716 36.5958C48.9592 36.5958 51.3 34.2621 51.3 31.3834C51.3 28.5046 48.9592 26.171 46.0716 26.171C43.184 26.171 40.8432 28.5046 40.8432 31.3834C40.8432 34.2621 43.184 36.5958 46.0716 36.5958Z" fill="url(#paint9_linear-018518)"/>
</g>
<mask id="mask5-351000" mask-type="alpha" maskUnits="userSpaceOnUse" x="71" y="26" width="11" height="11">
<path d="M76.3526 36.5958C79.2402 36.5958 81.581 34.2621 81.581 31.3834C81.581 28.5046 79.2402 26.171 76.3526 26.171C73.4651 26.171 71.1243 28.5046 71.1243 31.3834C71.1243 34.2621 73.4651 36.5958 76.3526 36.5958Z" fill="url(#paint10_linear-055801)"/>
</mask>
<g mask="url(#mask5-351000)">
<path d="M76.3526 36.5958C79.2402 36.5958 81.581 34.2621 81.581 31.3834C81.581 28.5046 79.2402 26.171 76.3526 26.171C73.4651 26.171 71.1243 28.5046 71.1243 31.3834C71.1243 34.2621 73.4651 36.5958 76.3526 36.5958Z" fill="url(#paint11_linear-827554)"/>
</g>
<mask id="mask6-489659" mask-type="alpha" maskUnits="userSpaceOnUse" x="10" y="52" width="12" height="11">
<path d="M15.7905 62.7125C18.6781 62.7125 21.0189 60.3788 21.0189 57.5C21.0189 54.6212 18.6781 52.2875 15.7905 52.2875C12.903 52.2875 10.5621 54.6212 10.5621 57.5C10.5621 60.3788 12.903 62.7125 15.7905 62.7125Z" fill="url(#paint12_linear-629125)"/>
</mask>
<g mask="url(#mask6-489659)">
<path d="M15.7905 62.7125C18.6781 62.7125 21.0189 60.3788 21.0189 57.5C21.0189 54.6212 18.6781 52.2875 15.7905 52.2875C12.903 52.2875 10.5621 54.6212 10.5621 57.5C10.5621 60.3788 12.903 62.7125 15.7905 62.7125Z" fill="url(#paint13_linear-547408)"/>
</g>
<mask id="mask7-548348" mask-type="alpha" maskUnits="userSpaceOnUse" x="40" y="52" width="12" height="11">
<path d="M46.0716 62.7125C48.9592 62.7125 51.3 60.3788 51.3 57.5C51.3 54.6212 48.9592 52.2875 46.0716 52.2875C43.184 52.2875 40.8432 54.6212 40.8432 57.5C40.8432 60.3788 43.184 62.7125 46.0716 62.7125Z" fill="url(#paint14_linear-902190)"/>
</mask>
<g mask="url(#mask7-548348)">
<path d="M46.0716 62.7125C48.9592 62.7125 51.3 60.3788 51.3 57.5C51.3 54.6212 48.9592 52.2875 46.0716 52.2875C43.184 52.2875 40.8432 54.6212 40.8432 57.5C40.8432 60.3788 43.184 62.7125 46.0716 62.7125Z" fill="url(#paint15_linear-242550)"/>
</g>
<mask id="mask8-131821" mask-type="alpha" maskUnits="userSpaceOnUse" x="71" y="52" width="11" height="11">
<path d="M76.3526 62.7125C79.2402 62.7125 81.581 60.3788 81.581 57.5C81.581 54.6212 79.2402 52.2875 76.3526 52.2875C73.4651 52.2875 71.1243 54.6212 71.1243 57.5C71.1243 60.3788 73.4651 62.7125 76.3526 62.7125Z" fill="url(#paint16_linear-962500)"/>
</mask>
<g mask="url(#mask8-131821)">
<path d="M76.3526 62.7125C79.2402 62.7125 81.581 60.3788 81.581 57.5C81.581 54.6212 79.2402 52.2875 76.3526 52.2875C73.4651 52.2875 71.1243 54.6212 71.1243 57.5C71.1243 60.3788 73.4651 62.7125 76.3526 62.7125Z" fill="url(#paint17_linear-087987)"/>
</g>
<mask id="mask9-409236" mask-type="alpha" maskUnits="userSpaceOnUse" x="10" y="78" width="12" height="11">
<path d="M15.7905 88.8834C18.6781 88.8834 21.0189 86.5496 21.0189 83.6709C21.0189 80.7921 18.6781 78.4584 15.7905 78.4584C12.903 78.4584 10.5621 80.7921 10.5621 83.6709C10.5621 86.5496 12.903 88.8834 15.7905 88.8834Z" fill="url(#paint18_linear-111716)"/>
</mask>
<g mask="url(#mask9-409236)">
<path d="M15.7905 88.8834C18.6781 88.8834 21.0189 86.5496 21.0189 83.6709C21.0189 80.7921 18.6781 78.4584 15.7905 78.4584C12.903 78.4584 10.5621 80.7921 10.5621 83.6709C10.5621 86.5496 12.903 88.8834 15.7905 88.8834Z" fill="url(#paint19_linear-153405)"/>
</g>
<mask id="mask1-8715770" mask-type="alpha" maskUnits="userSpaceOnUse" x="40" y="78" width="12" height="11">
<path d="M46.0716 88.8834C48.9592 88.8834 51.3 86.5496 51.3 83.6709C51.3 80.7921 48.9592 78.4584 46.0716 78.4584C43.184 78.4584 40.8432 80.7921 40.8432 83.6709C40.8432 86.5496 43.184 88.8834 46.0716 88.8834Z" fill="url(#paint20_linear-806756)"/>
</mask>
<g mask="url(#mask1-8715770)">
<path d="M46.0716 88.8834C48.9592 88.8834 51.3 86.5496 51.3 83.6709C51.3 80.7921 48.9592 78.4584 46.0716 78.4584C43.184 78.4584 40.8432 80.7921 40.8432 83.6709C40.8432 86.5496 43.184 88.8834 46.0716 88.8834Z" fill="url(#paint21_linear-798072)"/>
</g>
<mask id="mask1-8715771" mask-type="alpha" maskUnits="userSpaceOnUse" x="71" y="78" width="11" height="11">
<path d="M76.3526 88.8834C79.2402 88.8834 81.581 86.5496 81.581 83.6709C81.581 80.7921 79.2402 78.4584 76.3526 78.4584C73.4651 78.4584 71.1243 80.7921 71.1243 83.6709C71.1243 86.5496 73.4651 88.8834 76.3526 88.8834Z" fill="url(#paint22_linear-424566)"/>
</mask>
<g mask="url(#mask1-8715771)">
<path d="M76.3526 88.8834C79.2402 88.8834 81.581 86.5496 81.581 83.6709C81.581 80.7921 79.2402 78.4584 76.3526 78.4584C73.4651 78.4584 71.1243 80.7921 71.1243 83.6709C71.1243 86.5496 73.4651 88.8834 76.3526 88.8834Z" fill="url(#paint23_linear-454153)"/>
</g>
<mask id="mask1-8715772" mask-type="alpha" maskUnits="userSpaceOnUse" x="10" y="104" width="12" height="11">
<path d="M15.7905 115C18.6781 115 21.0189 112.666 21.0189 109.788C21.0189 106.909 18.6781 104.575 15.7905 104.575C12.903 104.575 10.5621 106.909 10.5621 109.788C10.5621 112.666 12.903 115 15.7905 115Z" fill="url(#paint24_linear-114652)"/>
</mask>
<g mask="url(#mask1-8715772)">
<path d="M15.7905 115C18.6781 115 21.0189 112.666 21.0189 109.788C21.0189 106.909 18.6781 104.575 15.7905 104.575C12.903 104.575 10.5621 106.909 10.5621 109.788C10.5621 112.666 12.903 115 15.7905 115Z" fill="url(#paint25_linear-687855)"/>
</g>
<mask id="mask1-8715773" mask-type="alpha" maskUnits="userSpaceOnUse" x="40" y="104" width="12" height="11">
<path d="M46.0716 115C48.9592 115 51.3 112.666 51.3 109.788C51.3 106.909 48.9592 104.575 46.0716 104.575C43.184 104.575 40.8432 106.909 40.8432 109.788C40.8432 112.666 43.184 115 46.0716 115Z" fill="url(#paint26_linear-615811)"/>
</mask>
<g mask="url(#mask1-8715773)">
<path d="M46.0716 115C48.9592 115 51.3 112.666 51.3 109.788C51.3 106.909 48.9592 104.575 46.0716 104.575C43.184 104.575 40.8432 106.909 40.8432 109.788C40.8432 112.666 43.184 115 46.0716 115Z" fill="url(#paint27_linear-525591)"/>
</g>
<mask id="mask1-8715774" mask-type="alpha" maskUnits="userSpaceOnUse" x="71" y="104" width="11" height="11">
<path d="M76.3526 115C79.2402 115 81.581 112.666 81.581 109.788C81.581 106.909 79.2402 104.575 76.3526 104.575C73.4651 104.575 71.1243 106.909 71.1243 109.788C71.1243 112.666 73.4651 115 76.3526 115Z" fill="url(#paint28_linear-660782)"/>
</mask>
<g mask="url(#mask1-8715774)">
<path d="M76.3526 115C79.2402 115 81.581 112.666 81.581 109.788C81.581 106.909 79.2402 104.575 76.3526 104.575C73.4651 104.575 71.1243 106.909 71.1243 109.788C71.1243 112.666 73.4651 115 76.3526 115Z" fill="url(#paint29_linear-300696)"/>
</g>
</g>
<defs>
<linearGradient id="paint0_linear-761921" x1="57.4049" y1="110.551" x2="-13.9967" y2="-71.2526" gradientUnits="userSpaceOnUse">
<stop/>
<stop offset="1" stop-color="white"/>
</linearGradient>
<linearGradient id="paint1_linear-674766" x1="57.4049" y1="110.551" x2="-13.9967" y2="-71.2526" gradientUnits="userSpaceOnUse">
<stop stop-color="#97C3F9"/>
<stop offset="1" stop-color="#93C1F9"/>
</linearGradient>
<linearGradient id="paint2_linear-891729" x1="83.6091" y1="100.259" x2="12.2075" y2="-81.5444" gradientUnits="userSpaceOnUse">
<stop/>
<stop offset="1" stop-color="white"/>
</linearGradient>
<linearGradient id="paint3_linear-009853" x1="83.6091" y1="100.259" x2="12.2075" y2="-81.5444" gradientUnits="userSpaceOnUse">
<stop stop-color="#97C3F9"/>
<stop offset="1" stop-color="#93C1F9"/>
</linearGradient>
<linearGradient id="paint4_linear-636126" x1="109.813" y1="89.9679" x2="38.4119" y2="-91.8359" gradientUnits="userSpaceOnUse">
<stop/>
<stop offset="1" stop-color="white"/>
</linearGradient>
<linearGradient id="paint5_linear-335337" x1="109.813" y1="89.9679" x2="38.4119" y2="-91.8359" gradientUnits="userSpaceOnUse">
<stop stop-color="#97C3F9"/>
<stop offset="1" stop-color="#93C1F9"/>
</linearGradient>
<linearGradient id="paint6_linear-528448" x1="48.4624" y1="114.062" x2="-22.9379" y2="-67.7403" gradientUnits="userSpaceOnUse">
<stop/>
<stop offset="1" stop-color="white"/>
</linearGradient>
<linearGradient id="paint7_linear-991501" x1="48.4624" y1="114.062" x2="-22.9379" y2="-67.7403" gradientUnits="userSpaceOnUse">
<stop stop-color="#97C3F9"/>
<stop offset="1" stop-color="#93C1F9"/>
</linearGradient>
<linearGradient id="paint8_linear-344547" x1="74.6667" y1="103.771" x2="3.26634" y2="-78.0318" gradientUnits="userSpaceOnUse">
<stop/>
<stop offset="1" stop-color="white"/>
</linearGradient>
<linearGradient id="paint9_linear-018518" x1="74.6667" y1="103.771" x2="3.26634" y2="-78.0318" gradientUnits="userSpaceOnUse">
<stop stop-color="#97C3F9"/>
<stop offset="1" stop-color="#93C1F9"/>
</linearGradient>
<linearGradient id="paint10_linear-055801" x1="100.871" y1="93.4794" x2="29.4707" y2="-88.3231" gradientUnits="userSpaceOnUse">
<stop/>
<stop offset="1" stop-color="white"/>
</linearGradient>
<linearGradient id="paint11_linear-827554" x1="100.871" y1="93.4794" x2="29.4707" y2="-88.3231" gradientUnits="userSpaceOnUse">
<stop stop-color="#97C3F9"/>
<stop offset="1" stop-color="#93C1F9"/>
</linearGradient>
<linearGradient id="paint12_linear-629125" x1="39.5201" y1="117.575" x2="-31.8815" y2="-64.2288" gradientUnits="userSpaceOnUse">
<stop/>
<stop offset="1" stop-color="white"/>
</linearGradient>
<linearGradient id="paint13_linear-547408" x1="39.5201" y1="117.575" x2="-31.8815" y2="-64.2288" gradientUnits="userSpaceOnUse">
<stop stop-color="#97C3F9"/>
<stop offset="1" stop-color="#93C1F9"/>
</linearGradient>
<linearGradient id="paint14_linear-902190" x1="65.7243" y1="107.283" x2="-5.67728" y2="-74.5205" gradientUnits="userSpaceOnUse">
<stop/>
<stop offset="1" stop-color="white"/>
</linearGradient>
<linearGradient id="paint15_linear-242550" x1="65.7243" y1="107.283" x2="-5.67728" y2="-74.5205" gradientUnits="userSpaceOnUse">
<stop stop-color="#97C3F9"/>
<stop offset="1" stop-color="#93C1F9"/>
</linearGradient>
<linearGradient id="paint16_linear-962500" x1="91.9287" y1="96.9919" x2="20.5271" y2="-84.812" gradientUnits="userSpaceOnUse">
<stop/>
<stop offset="1" stop-color="white"/>
</linearGradient>
<linearGradient id="paint17_linear-087987" x1="91.9287" y1="96.9919" x2="20.5271" y2="-84.812" gradientUnits="userSpaceOnUse">
<stop stop-color="#97C3F9"/>
<stop offset="1" stop-color="#93C1F9"/>
</linearGradient>
<linearGradient id="paint18_linear-111716" x1="30.5777" y1="121.087" x2="-40.8239" y2="-60.7168" gradientUnits="userSpaceOnUse">
<stop/>
<stop offset="1" stop-color="white"/>
</linearGradient>
<linearGradient id="paint19_linear-153405" x1="30.5777" y1="121.087" x2="-40.8239" y2="-60.7168" gradientUnits="userSpaceOnUse">
<stop stop-color="#97C3F9"/>
<stop offset="1" stop-color="#93C1F9"/>
</linearGradient>
<linearGradient id="paint20_linear-806756" x1="56.782" y1="110.795" x2="-14.6196" y2="-71.0084" gradientUnits="userSpaceOnUse">
<stop/>
<stop offset="1" stop-color="white"/>
</linearGradient>
<linearGradient id="paint21_linear-798072" x1="56.782" y1="110.795" x2="-14.6196" y2="-71.0084" gradientUnits="userSpaceOnUse">
<stop stop-color="#97C3F9"/>
<stop offset="1" stop-color="#93C1F9"/>
</linearGradient>
<linearGradient id="paint22_linear-424566" x1="82.9863" y1="100.504" x2="11.5847" y2="-81.3" gradientUnits="userSpaceOnUse">
<stop/>
<stop offset="1" stop-color="white"/>
</linearGradient>
<linearGradient id="paint23_linear-454153" x1="82.9863" y1="100.504" x2="11.5847" y2="-81.3" gradientUnits="userSpaceOnUse">
<stop stop-color="#97C3F9"/>
<stop offset="1" stop-color="#93C1F9"/>
</linearGradient>
<linearGradient id="paint24_linear-114652" x1="21.6353" y1="124.599" x2="-49.7663" y2="-57.2047" gradientUnits="userSpaceOnUse">
<stop/>
<stop offset="1" stop-color="white"/>
</linearGradient>
<linearGradient id="paint25_linear-687855" x1="21.6353" y1="124.599" x2="-49.7663" y2="-57.2047" gradientUnits="userSpaceOnUse">
<stop stop-color="#97C3F9"/>
<stop offset="1" stop-color="#93C1F9"/>
</linearGradient>
<linearGradient id="paint26_linear-615811" x1="47.8397" y1="114.307" x2="-23.562" y2="-67.4964" gradientUnits="userSpaceOnUse">
<stop/>
<stop offset="1" stop-color="white"/>
</linearGradient>
<linearGradient id="paint27_linear-525591" x1="47.8397" y1="114.307" x2="-23.562" y2="-67.4964" gradientUnits="userSpaceOnUse">
<stop stop-color="#97C3F9"/>
<stop offset="1" stop-color="#93C1F9"/>
</linearGradient>
<linearGradient id="paint28_linear-660782" x1="74.044" y1="104.016" x2="2.64237" y2="-77.7879" gradientUnits="userSpaceOnUse">
<stop/>
<stop offset="1" stop-color="white"/>
</linearGradient>
<linearGradient id="paint29_linear-300696" x1="74.044" y1="104.016" x2="2.64237" y2="-77.7879" gradientUnits="userSpaceOnUse">
<stop stop-color="#97C3F9"/>
<stop offset="1" stop-color="#93C1F9"/>
</linearGradient>
</defs>
</svg>